<?xml version="1.0" encoding="UTF-8" standalone="no"?>
<!-- Created with Inkscape (http://www.inkscape.org/) -->

<svg
   width="500"
   height="500"
   viewBox="0 0 132.29166 132.29167"
   version="1.1"
   id="svg1"
   inkscape:version="1.4.2 (f4327f4, 2025-05-13)"
   sodipodi:docname="featherly-sygnet.svg"
   xmlns:inkscape="http://www.inkscape.org/namespaces/inkscape"
   xmlns:sodipodi="http://sodipodi.sourceforge.net/DTD/sodipodi-0.dtd"
   xmlns="http://www.w3.org/2000/svg"
   xmlns:svg="http://www.w3.org/2000/svg">
  <sodipodi:namedview
     id="namedview1"
     pagecolor="#ffffff"
     bordercolor="#000000"
     borderopacity="0.25"
     inkscape:showpageshadow="2"
     inkscape:pageopacity="0.0"
     inkscape:pagecheckerboard="0"
     inkscape:deskcolor="#d1d1d1"
     inkscape:document-units="mm"
     inkscape:zoom="0.52649411"
     inkscape:cx="396.96551"
     inkscape:cy="523.27271"
     inkscape:window-width="1536"
     inkscape:window-height="793"
     inkscape:window-x="1912"
     inkscape:window-y="-8"
     inkscape:window-maximized="1"
     inkscape:current-layer="layer1" />
  <defs
     id="defs1" />
  <g
     inkscape:label="Warstwa 1"
     inkscape:groupmode="layer"
     id="layer1">
    <path
       id="path2"
       style="fill:none;stroke:#000000;stroke-width:2.17965;stroke-linecap:round;stroke-linejoin:miter;stroke-miterlimit:10;stroke-dasharray:none;stroke-opacity:1;paint-order:markers stroke fill"
       d="M 35.264421,104.92881 C 49.826309,69.774937 65.001539,52.561686 81.6769,33.218321 M 35.264421,104.92881 c 0.383429,1.08596 -7.518186,15.75712 -7.957596,25.50194 10.786989,-5.74794 6.134803,-15.94347 12.34037,-19.4341 7.659359,-3.6366 20.943003,-3.76646 31.282613,-15.460244 -5.61882,1.697012 -10.165842,1.907823 -16.825321,1.845022 C 72.195091,93.413459 88.230932,81.896878 94.505419,58.313249 89.285513,61.197777 84.151777,62.484231 78.811403,62.890093 103.02373,51.389301 104.91099,22.804844 96.903434,1.7278627 42.032744,42.10213 20.45948,60.830195 35.264421,104.92878 Z" />
  </g>
</svg>
